# xmcd
#
# Track frame offsets:
#	150
#	8727
#	17195
#	30550
#	40685
#	51292
#	60832
#	71282
#	80820
#	91955
#	99792
#	109565
#	120400
#	132587
#	141260
#	153962
#	163652
#	173930
#
# Disc length: 2452 seconds
#
# Revision: 1
# Processed by: cddbd v1.5.1PL0 Copyright (c) Steve Scherf et al.
# Submitted via: audiograbber 1.83.01
#
DISCID=dc099212
DTITLE=The Chiffons - Best Of The Chiffons
DYEAR=1997
DGENRE=Rock and Roll
TTITLE0=He's So Fine
TTITLE1=Keep The Boy Happy
TTITLE2=Sailor Boy
TTITLE3=When The Boy's Happy (The Girl's Happy Too)
TTITLE4=Did You Ever Go Steady
TTITLE5=My Boyfriend's Back
TTITLE6=He's A Bad One
TTITLE7=I Have A Boyfriend
TTITLE8=Sweet Talkin' Guy
TTITLE9=Tonight I Met An Angel
TTITLE10=One Fine Day
TTITLE11=Will You Still Love Me Tomorrow
TTITLE12=Just For Tonight
TTITLE13=A Love So Fine
TTITLE14=Stop Look And Listen
TTITLE15=The Loco-Motion
TTITLE16=It's My Party
TTITLE17=I Wonder Why
EXTD=
EXTT0=
EXTT1=
EXTT2=
EXTT3=
EXTT4=
EXTT5=
EXTT6=
EXTT7=
EXTT8=
EXTT9=
EXTT10=
EXTT11=
EXTT12=
EXTT13=
EXTT14=
EXTT15=
EXTT16=
EXTT17=
PLAYORDER=
